# xmcd
#
# Track frame offsets: 
#        150
#        18097
#        40757
#        61495
#        75037
#        100265
#        118437
#        136962
#        155822
#        172967
#
# Disc length: 2541 seconds
#
# Revision: 2
# Processed by: cddbd v1.5.1PL2 Copyright (c) Steve Scherf et al.
# Submitted via: ExactAudioCopy v0.95b3
#
DISCID=7709eb0a
DTITLE=Johnny Adams - After Dark
DYEAR=1986
DGENRE=Blues
TTITLE0=Lovers Will
TTITLE1=I Don't Know You
TTITLE2=Fortune Teller
TTITLE3=Missing You
TTITLE4=Do Right Woman - Do Right Man
TTITLE5=Give A Broken Heart A Break
TTITLE6=She Said The Same Things To Me
TTITLE7=Garbage Man
TTITLE8=Dancing Man
TTITLE9=Snap Your Fingers
EXTD=
EXTT0=
EXTT1=
EXTT2=
EXTT3=
EXTT4=
EXTT5=
EXTT6=
EXTT7=
EXTT8=
EXTT9=
PLAYORDER=
